<svg width="115" height="48" viewBox="0 0 115 48" fill="none" xmlns="http://www.w3.org/2000/svg">
<path fill-rule="evenodd" clip-rule="evenodd" d="M112.076 35.7367V40.9476H110.927V35.7367H108.034V34.8281H114.979V35.7367H112.076V35.7367ZM100.746 40.9476V34.8281H106.909V35.7367H101.9V37.3083H104.915V38.2169H101.9V40.0488H106.963V40.9426H100.746V40.9476ZM96.9493 35.7367H92.6568V37.323H96.5859C97.1605 37.323 97.5485 37.4212 97.7597 37.6226C97.9708 37.824 98.074 38.207 98.074 38.7669V39.5036C98.074 40.0684 97.9758 40.4515 97.7695 40.648C97.5632 40.8493 97.1703 40.9476 96.5859 40.9476H92.8631C92.2786 40.9476 91.8808 40.8444 91.6745 40.648C91.4634 40.4466 91.3602 40.0684 91.3602 39.5036V39.3366L92.4161 39.1156V40.0242H97.0377V38.3053H93.0988C92.5193 38.3053 92.1264 38.207 91.9201 38.0057C91.7138 37.8043 91.6107 37.4212 91.6107 36.8613V36.2818C91.6107 35.7219 91.7138 35.3388 91.9201 35.1326C92.1264 34.9312 92.5193 34.8281 93.0988 34.8281H96.5024C97.0721 34.8281 97.465 34.9263 97.6811 35.1227C97.8972 35.3192 98.0052 35.6679 98.0052 36.1689V36.3162L96.9542 36.5421V35.7367H96.9493ZM87.7504 35.7367H83.4579V37.323H87.387C87.9616 37.323 88.3496 37.4212 88.5608 37.6226C88.772 37.824 88.8751 38.207 88.8751 38.7669V39.5036C88.8751 40.0684 88.772 40.4515 88.5706 40.648C88.3692 40.8493 87.9714 40.9476 87.387 40.9476H83.6642C83.0797 40.9476 82.6819 40.8444 82.4757 40.648C82.2645 40.4466 82.1613 40.0684 82.1613 39.5036V39.3366L83.2173 39.1156V40.0242H87.8339V38.3053H83.895C83.3155 38.3053 82.9226 38.207 82.7163 38.0057C82.51 37.8043 82.4069 37.4212 82.4069 36.8613V36.2818C82.4069 35.7219 82.51 35.3388 82.7163 35.1326C82.9226 34.9312 83.3155 34.8281 83.895 34.8281H87.2986C87.8683 34.8281 88.2563 34.9263 88.4724 35.1227C88.6885 35.3192 88.7965 35.6679 88.7965 36.1689V36.3162L87.7455 36.5421V35.7367H87.7504ZM70.9144 40.9476L74.981 33.4922H76.312L80.4522 40.9476H79.0819L78.1291 39.1156H73.0852L72.1324 40.9476H70.9046H70.9144ZM73.6156 38.1628H77.6282L75.6195 34.3468L73.6206 38.1628H73.6156ZM57.5262 36.0559C57.5557 36.2327 57.5753 36.4144 57.59 36.5961C57.6048 36.7828 57.6097 36.9645 57.6097 37.1462V40.9476H56.5488V34.8281H57.428L61.9169 38.8259C62.0495 38.9388 62.1772 39.0665 62.2951 39.1991C62.4179 39.3366 62.5357 39.4938 62.6536 39.6657C62.6192 39.484 62.5947 39.2974 62.5799 39.1058C62.5652 38.9143 62.5554 38.7227 62.5554 38.5214V34.8281H63.6162V40.9476H62.8255L58.2432 36.8908C58.0812 36.7435 57.9437 36.601 57.8307 36.4635C57.7177 36.3309 57.6146 36.1934 57.5262 36.051V36.0559ZM46.4365 36.2818C46.4365 35.7219 46.5396 35.3388 46.7508 35.1326C46.962 34.9312 47.3549 34.8281 47.9344 34.8281H52.3546C52.9341 34.8281 53.327 34.9312 53.5382 35.1326C53.7494 35.3388 53.8525 35.7219 53.8525 36.2818V39.4987C53.8525 40.0586 53.7494 40.4368 53.5382 40.6431C53.327 40.8444 52.9341 40.9476 52.3497 40.9476H47.9295C47.3401 40.9476 46.9472 40.8444 46.736 40.648C46.5298 40.4466 46.4266 40.0684 46.4266 39.5036V36.2867L46.4365 36.2818ZM47.5906 40.0242H52.7033V35.7367H47.5906V40.0242ZM43.7794 40.9476H42.6302V34.8428H43.7794V40.9476V40.9476ZM34.9292 40.9476V34.8281H36.0834V40.0242H40.8474V40.9476H34.9292ZM27.2038 40.9476V34.8281H28.3579V40.0242H33.1219V40.9476H27.2038ZM19.5765 38.6343H22.8229L21.1972 35.7219L19.5765 38.6343ZM17.1503 40.9476L20.6914 34.8281H21.7473L25.3718 40.9476H24.1195L23.3189 39.5135H19.0903L18.3094 40.9476H17.1503V40.9476ZM14.0267 35.7367V40.9476H12.8775V35.7367H9.9847V34.8281H16.9293V35.7367H14.0218H14.0267ZM6.68921 34.5088H1.40464V36.5863H6.09985C6.76288 36.5863 7.21472 36.7091 7.46028 36.9547C7.70585 37.2002 7.82863 37.6619 7.82863 38.3446V39.1795C7.82863 39.8671 7.70585 40.3336 7.4701 40.5792C7.22945 40.8248 6.7727 40.9476 6.09985 40.9476H1.74843C1.07067 40.9476 0.609003 40.8248 0.363437 40.5792C0.122783 40.3336 0 39.8671 0 39.1844V38.983L1.15416 38.7129V39.9113H6.70394V37.6668H2.02346C1.3457 37.6668 0.888947 37.544 0.648293 37.2985C0.41255 37.0529 0.289767 36.5863 0.289767 35.9086V35.2603C0.289767 34.5776 0.41255 34.1159 0.648293 33.8704C0.888947 33.6248 1.35061 33.502 2.02346 33.502H5.99671C6.65974 33.502 7.11649 33.6248 7.36697 33.8654C7.62236 34.1061 7.74514 34.5334 7.74514 35.1375V35.2897L6.67938 35.5942V34.5137L6.68921 34.5088Z" fill="#1B1918"/>
<path fill-rule="evenodd" clip-rule="evenodd" d="M83.7715 43.9093L82.9071 45.7314H84.626L83.7715 43.9093ZM83.8304 42.8435L86.178 47.8678H85.6377L84.847 46.2127H82.6811L81.8953 47.8678H81.3354L83.7125 42.8435H83.8353H83.8304ZM76.9889 42.8435H77.4948V44.9505H80.0536V42.8435H80.5594V47.8678H80.0536V45.4416H77.4948V47.8678H76.9889V42.8435ZM73.3496 43.3298V45.0389L74.1993 45.0487C74.5431 45.0487 74.7936 45.0143 74.9556 44.9505C75.1177 44.8916 75.2405 44.7884 75.3338 44.646C75.4271 44.5036 75.4713 44.3464 75.4713 44.1745C75.4713 44.0026 75.4271 43.8504 75.3338 43.7128C75.2454 43.5704 75.1226 43.4722 74.9753 43.4133C74.828 43.3543 74.5824 43.3249 74.2435 43.3249H73.3546L73.3496 43.3298ZM72.8487 42.8435H73.8506C74.4252 42.8435 74.8132 42.8681 75.0146 42.9172C75.3043 42.986 75.5352 43.1333 75.7169 43.3543C75.8986 43.5753 75.9919 43.8504 75.9919 44.1843C75.9919 44.5183 75.9035 44.7982 75.7218 45.0143C75.545 45.2354 75.2994 45.3778 74.9851 45.4514C74.7592 45.5055 74.3319 45.5349 73.7082 45.5349H73.3496V47.8727H72.8487V42.8485V42.8435ZM69.622 42.8435H70.1278V47.3865H72.058V47.8727H69.622V42.8485V42.8435ZM66.4394 43.9093L65.575 45.7314H67.294L66.4394 43.9093ZM66.4984 42.8435L68.8411 47.8678H68.3008L67.5101 46.2127H65.3442L64.5584 47.8678H63.9985L66.3756 42.8435H66.4984V42.8435ZM61.2531 43.6883L60.8651 44.0566C60.5852 43.7816 60.2757 43.5753 59.9418 43.4329C59.6078 43.2905 59.2837 43.2168 58.9693 43.2168C58.5764 43.2168 58.1983 43.315 57.8397 43.5066C57.4861 43.6981 57.2062 43.9633 57.0097 44.2924C56.8133 44.6263 56.715 44.9751 56.715 45.3434C56.715 45.7117 56.8182 46.0801 57.0195 46.4239C57.2209 46.7628 57.5008 47.0329 57.8594 47.2293C58.2179 47.4209 58.6108 47.5191 59.0332 47.5191C59.5489 47.5191 59.9909 47.3718 60.3445 47.082C60.703 46.7922 60.9142 46.4141 60.9781 45.9475H59.377V45.4613H61.5429C61.5429 46.2373 61.3071 46.8561 60.8504 47.3128C60.3936 47.7696 59.7846 47.9955 59.0184 47.9955C58.0902 47.9955 57.3535 47.6812 56.8133 47.0476C56.3958 46.5614 56.1895 45.9966 56.1895 45.3532C56.1895 44.8768 56.3074 44.4348 56.5481 44.0223C56.7838 43.6146 57.1178 43.2954 57.5303 43.0596C57.9478 42.8288 58.4193 42.7109 58.9448 42.7109C59.3721 42.7109 59.7748 42.7895 60.148 42.9418C60.5262 43.0989 60.8946 43.3445 61.2482 43.6834L61.2531 43.6883ZM51.2291 47.8727V42.8485H51.3372L54.6818 46.6989V42.8485H55.1778V47.8727H55.0648L51.7497 44.0714V47.8727H51.2291ZM49.574 42.8485H50.0749V47.8727H49.574V42.8485ZM46.1655 43.3347V42.8485H48.9208V43.3347H47.801V47.8727H47.2902V43.3347H46.1655V43.3347ZM43.4791 43.9142L42.6147 45.7363H44.3336L43.4791 43.9142ZM43.5429 42.8485L45.8856 47.8727H45.3454L44.5546 46.2176H42.3887L41.6029 47.8727H41.043L43.4201 42.8485H43.5429V42.8485ZM37.7377 42.8485H40.6158V43.3445H38.2387V44.9161H40.5961V45.4072H38.2387V47.3816H40.5961V47.8776H37.7377V42.8534V42.8485ZM34.015 43.3396V45.0487L34.8793 45.0585C35.2133 45.0585 35.4638 45.0242 35.6259 44.9603C35.7879 44.8965 35.9107 44.7933 35.9991 44.6558C36.0875 44.5134 36.1366 44.3562 36.1366 44.1843C36.1366 44.0124 36.0924 43.8602 35.9991 43.7227C35.9058 43.5851 35.7879 43.4869 35.6406 43.428C35.4933 43.3691 35.2477 43.3396 34.9039 43.3396H34.0199H34.015ZM33.514 42.8485H34.5159C35.0758 42.8485 35.454 42.873 35.6504 42.9172C35.95 42.986 36.1907 43.1284 36.3773 43.3543C36.5639 43.5802 36.6572 43.8553 36.6572 44.1843C36.6572 44.4545 36.5934 44.6951 36.4657 44.9014C36.338 45.1126 36.1514 45.2648 35.9156 45.3729C35.675 45.4809 35.3459 45.5349 34.9235 45.5349L36.7309 47.8727H36.1072L34.3047 45.5349H34.0199V47.8727H33.5189V42.8485H33.514ZM32.4777 43.7816L32.0799 44.0861C31.8589 43.8013 31.5986 43.5852 31.2941 43.4378C30.9896 43.2905 30.6507 43.2168 30.2824 43.2168C29.8796 43.2168 29.5113 43.315 29.1675 43.5066C28.8237 43.6981 28.5634 43.9584 28.3719 44.2826C28.1852 44.6067 28.0919 44.9751 28.0919 45.3778C28.0919 45.9917 28.3031 46.5025 28.7255 46.9101C29.1478 47.3227 29.6783 47.524 30.3167 47.524C31.0191 47.524 31.6084 47.249 32.0848 46.6989L32.4826 46.9985C32.2322 47.3177 31.9178 47.5633 31.5446 47.7401C31.1713 47.9169 30.7489 48.0004 30.2873 48.0004C29.4081 48.0004 28.7157 47.7057 28.2049 47.1213C27.7776 46.6302 27.5664 46.031 27.5664 45.3336C27.5664 44.5969 27.8218 43.9781 28.3424 43.4771C28.8581 42.9761 29.5015 42.7208 30.2824 42.7208C30.7538 42.7208 31.1762 42.8141 31.5544 43.0007C31.9326 43.1873 32.242 43.4476 32.4826 43.7816H32.4777Z" fill="#E30016"/>
<path fill-rule="evenodd" clip-rule="evenodd" d="M30.7422 15.6983C37.2006 16.1943 40.9282 13.3458 48.8158 7.7567C55.0876 3.31196 60.1757 1.23939 64.424 0.409379C68.1516 -0.317495 72.6602 -0.106309 75.2534 1.28359C70.3421 0.129434 65.4308 0.532162 61.1236 2.27077C58.9036 3.16462 56.4283 4.3679 53.8254 5.96407C51.4237 7.43747 48.7814 9.21045 46.0115 11.1799C41.5029 14.3919 36.7929 17.1177 30.7422 15.6983V15.6983Z" fill="#1B1918"/>
<path fill-rule="evenodd" clip-rule="evenodd" d="M54.3583 10.5078C50.8566 11.716 48.6808 12.8898 46.8342 13.9703C45.2822 14.8838 44.1281 15.5616 42.6596 16.8188C38.981 19.9768 35.1993 23.3558 30.5532 24.893C24.6842 26.8379 16.8997 27.0442 11.625 23.3411C15.7161 25.2172 20.8042 25.8606 25.8236 25.1239C28.1074 24.7899 31.1229 23.5424 33.4656 22.1182C36.1079 20.5072 38.4015 18.5771 41.9622 16.0232C44.1821 14.427 48.4353 11.7455 54.3534 10.5127L54.3583 10.5078Z" fill="#1B1918"/>
<path fill-rule="evenodd" clip-rule="evenodd" d="M8.40219 30.7911C11.4079 31.8176 15.003 32.3873 18.9959 32.181C23.1951 31.9649 26.3236 30.6683 29.3047 29.244C36.2444 25.924 41.0133 19.942 47.5552 15.9688C44.9129 18.9057 41.8138 21.4105 38.872 23.9938C34.8103 27.5644 30.9107 30.1575 26.8245 31.5769C23.5781 32.7016 20.1648 33.399 16.7465 33.1534C13.9569 32.9472 11.2557 32.3136 8.44148 31.1447C8.29905 31.0858 8.20573 30.7223 8.39728 30.7911H8.40219Z" fill="#1B1918"/>
<path fill-rule="evenodd" clip-rule="evenodd" d="M44.3906 26.0519C45.535 21.1259 49.4444 16.6173 54.7191 12.5311C58.5696 9.54991 62.5576 7.59521 66.4817 6.12182C69.6888 4.91363 72.9008 4.45688 76.0096 4.31445C75.6757 4.38812 75.5136 4.57966 75.1796 4.65824C70.1652 5.82714 64.8413 7.61485 59.9742 10.2915C52.2291 14.5496 47.2785 20.6004 44.3906 26.0568V26.0519Z" fill="#1B1918"/>
<path fill-rule="evenodd" clip-rule="evenodd" d="M75.4292 4.62271C75.1051 4.75041 74.9578 4.53431 75.223 4.35259C75.9498 3.85164 76.6718 3.35559 77.3987 2.85464L80.4093 0.836091C80.9594 0.467742 81.701 0.669106 81.8189 1.29775C82.0251 2.4028 81.4603 3.32121 80.817 4.16105C80.1392 4.9665 79.4221 5.37905 78.6658 5.57551C78.2925 5.67373 78.2582 5.58042 78.4693 5.32012C79.044 4.62762 79.6923 3.87128 80.3995 3.02654C80.6254 2.76132 80.6008 2.62381 80.1687 2.79079L75.4243 4.62271H75.4292Z" fill="#1B1918"/>
<path fill-rule="evenodd" clip-rule="evenodd" d="M79.7851 7.77107C81.7644 9.14133 83.2771 10.7424 84.6768 12.3582C86.7199 14.7108 88.5911 17.245 90.1038 19.9708C91.9014 23.2221 93.1537 26.7042 93.0997 28.7276C92.4662 26.9203 91.6951 25.162 90.8012 23.4431C89.1608 20.2753 87.1718 17.2745 85.0304 14.421C83.3999 12.2502 81.5336 10.0303 79.4757 7.93315C78.9208 7.36343 79.3088 7.43219 79.7901 7.76616L79.7851 7.77107Z" fill="#E30016"/>
<path fill-rule="evenodd" clip-rule="evenodd" d="M71.5239 12.761C71.7793 12.4369 71.9512 12.2944 71.8284 12.8592C71.0672 14.3916 70.5024 15.8355 70.2372 17.6183C69.9621 19.4551 70.9935 21.0709 72.9138 21.9402C74.564 22.6868 76.6955 22.6671 78.8762 22.7801C81.2434 23.0846 83.149 23.6052 83.979 24.3517C84.9367 25.2161 85.5408 26.11 85.6685 27.0333C85.8453 28.325 85.6931 29.597 86.4936 30.7855C86.7834 31.2128 87.2843 31.5664 87.7558 31.8365C88.2911 32.146 88.8265 32.3522 89.5828 32.4455C88.5023 32.4455 87.4218 32.3424 86.3414 31.6303C85.1921 30.6431 85.2363 29.3563 84.7845 27.7356C84.5635 26.9547 84.1116 25.997 83.3455 25.2849C82.2944 24.3124 80.7228 23.9392 79.161 23.8164C77.221 23.6592 75.0895 23.669 73.2134 23.1386C71.7253 22.7162 70.5122 21.9157 69.7313 20.3981C69.0732 19.1162 69.0879 17.6232 69.579 16.3266C70.0702 15.03 70.743 13.8513 71.5141 12.7463L71.5239 12.761Z" fill="#E30016"/>
</svg>
